<svg width="80" height="80" viewBox="0 0 80 80" fill="none" xmlns="http://www.w3.org/2000/svg">
<path d="M40 80C62.1 80 80 62.1 80 40C80 17.9 62.1 0 40 0C17.9 0 0 17.9 0 40C0 62.1 17.9 80 40 80Z" fill="#F0BE5F"/>
<path d="M27.002 27C27.002 30.2 39.0019 33.7 39.0019 37.1V46C39.0019 42.9 27.002 39.3 27.002 35.6V27ZM27.002 38.4C27.002 41.6 39.0019 45.1 39.0019 48.5V57.4C39.0019 54.3 27.002 50.7 27.002 47V38.4ZM27.002 49.7C27.002 52.9 39.0019 56.4 39.0019 59.8V68.7C39.0019 65.6 27.002 62 27.002 58.3V49.7ZM39.0019 32V10C37.5019 14.1 34.3019 17 33.3019 20.6C31.702 26.8 37.1019 28.2 39.0019 32ZM41.0019 32V10C42.5019 14.1 45.7019 17 46.7019 20.6C48.3019 26.8 42.9019 28.2 41.0019 32Z" fill="#D09A3F"/>
<path d="M53.001 26.9995C53.001 30.1995 41.001 33.6995 41.001 37.0995V45.9995C41.001 42.8995 53.001 39.2995 53.001 35.5995V26.9995Z" fill="white"/>
<path d="M53.001 38.4009C53.001 41.6009 41.001 45.1009 41.001 48.5009V57.4009C41.001 54.3009 53.001 50.7009 53.001 47.0009V38.4009Z" fill="#227AD2"/>
<path d="M53.001 49.6997C53.001 52.8997 41.001 56.3997 41.001 59.7997V68.6997C41.001 65.5997 53.001 61.9997 53.001 58.2997V49.6997Z" fill="#F35538"/>
</svg>
